<svg width="1203" height="112" viewBox="0 0 1203 112" fill="none" xmlns="http://www.w3.org/2000/svg">
<path d="M58.3367 2.49999L94.7867 96.4C96.1867 100 97.7367 102.5 99.4367 103.9C101.237 105.2 102.837 105.9 104.237 106V109C101.237 108.8 97.6867 108.7 93.5867 108.7C89.5867 108.6 85.5367 108.55 81.4367 108.55C76.8367 108.55 72.4867 108.6 68.3867 108.7C64.2867 108.7 61.0367 108.8 58.6367 109V106C63.7367 105.8 66.9367 104.95 68.2367 103.45C69.6367 101.85 69.3367 98.5 67.3367 93.4L41.8367 23.65L44.5367 19.75L21.7367 79.15C19.5367 84.65 18.1867 89.15 17.6867 92.65C17.2867 96.15 17.5367 98.85 18.4367 100.75C19.4367 102.65 20.9867 104 23.0867 104.8C25.2867 105.5 27.8867 105.9 30.8867 106V109C27.5867 108.8 24.4367 108.7 21.4367 108.7C18.4367 108.6 15.3867 108.55 12.2867 108.55C10.0867 108.55 7.98672 108.6 5.98672 108.7C4.08672 108.7 2.38672 108.8 0.886719 109V106C2.98672 105.6 5.13672 104.25 7.33672 101.95C9.53672 99.65 11.6867 95.75 13.7867 90.25L47.9867 2.49999C49.5867 2.59999 51.2867 2.64999 53.0867 2.64999C54.9867 2.64999 56.7367 2.59999 58.3367 2.49999ZM68.8367 65.8V68.8H24.1367L25.6367 65.8H68.8367ZM276.356 2.8C278.956 2.9 282.356 3 286.556 3.1C290.756 3.19999 294.956 3.24999 299.156 3.24999C303.956 3.24999 308.606 3.19999 313.106 3.1C317.606 3 320.806 2.95 322.706 2.95C335.106 2.95 344.356 5.15 350.456 9.54999C356.656 13.95 359.756 19.6 359.756 26.5C359.756 30 358.706 33.55 356.606 37.15C354.506 40.75 351.256 43.95 346.856 46.75C342.456 49.55 336.756 51.6 329.756 52.9V53.2C339.156 53.9 346.606 55.6 352.106 58.3C357.606 61 361.556 64.25 363.956 68.05C366.356 71.85 367.556 75.8 367.556 79.9C367.556 86.2 365.906 91.5 362.606 95.8C359.306 100.1 354.556 103.4 348.356 105.7C342.156 107.9 334.756 109 326.156 109C323.756 109 320.306 108.95 315.806 108.85C311.306 108.65 305.856 108.55 299.456 108.55C295.056 108.55 290.756 108.6 286.556 108.7C282.356 108.7 278.956 108.8 276.356 109V106C279.556 105.8 281.956 105.4 283.556 104.8C285.156 104.2 286.206 103 286.706 101.2C287.306 99.4 287.606 96.7 287.606 93.1V18.7C287.606 15 287.306 12.3 286.706 10.6C286.206 8.8 285.106 7.6 283.406 7C281.806 6.3 279.456 5.9 276.356 5.8V2.8ZM320.756 5.8C316.856 5.8 314.306 6.65 313.106 8.35C312.006 10.05 311.456 13.5 311.456 18.7V93.1C311.456 96.6 311.706 99.25 312.206 101.05C312.806 102.85 313.806 104.05 315.206 104.65C316.706 105.25 318.906 105.55 321.806 105.55C329.006 105.55 334.256 103.3 337.556 98.8C340.956 94.2 342.656 87.7 342.656 79.3C342.656 71.6 340.706 65.65 336.806 61.45C333.006 57.25 326.656 55.15 317.756 55.15H305.006C305.006 55.15 305.006 54.75 305.006 53.95C305.006 53.05 305.006 52.6 305.006 52.6H317.906C322.606 52.6 326.206 51.5 328.706 49.3C331.206 47 332.956 44 333.956 40.3C334.956 36.5 335.456 32.45 335.456 28.15C335.456 20.75 334.306 15.2 332.006 11.5C329.706 7.7 325.956 5.8 320.756 5.8ZM602.587 0.699991C613.187 0.699991 622.437 2.84999 630.337 7.15C638.337 11.45 644.537 17.65 648.937 25.75C653.337 33.75 655.537 43.5 655.537 55C655.537 66.2 653.287 76 648.787 84.4C644.287 92.8 637.987 99.35 629.887 104.05C621.887 108.75 612.737 111.1 602.437 111.1C591.837 111.1 582.537 108.95 574.537 104.65C566.637 100.35 560.487 94.15 556.087 86.05C551.687 77.95 549.487 68.2 549.487 56.8C549.487 45.6 551.737 35.8 556.237 27.4C560.837 19 567.087 12.45 574.987 7.75C582.987 3.04999 592.187 0.699991 602.587 0.699991ZM601.987 3.39999C596.387 3.39999 591.487 5.64999 587.287 10.15C583.187 14.65 579.987 20.85 577.687 28.75C575.487 36.65 574.387 45.8 574.387 56.2C574.387 66.8 575.637 76.05 578.137 83.95C580.737 91.75 584.187 97.8 588.487 102.1C592.887 106.3 597.737 108.4 603.037 108.4C608.637 108.4 613.487 106.15 617.587 101.65C621.787 97.15 624.987 90.95 627.187 83.05C629.487 75.05 630.637 65.9 630.637 55.6C630.637 44.9 629.337 35.65 626.737 27.85C624.237 20.05 620.787 14.05 616.387 9.85C612.087 5.54999 607.287 3.39999 601.987 3.39999ZM932.9 2.8V5.8C929.7 6.2 927.25 7.05 925.55 8.35C923.95 9.55 922.9 11.5 922.4 14.2C921.9 16.9 921.65 20.7 921.65 25.6V65.35C921.65 71.85 921.2 77.8 920.3 83.2C919.4 88.6 917.8 93.25 915.5 97.15C912.9 101.45 909.1 104.85 904.1 107.35C899.1 109.85 892.75 111.1 885.05 111.1C880.45 111.1 875.75 110.55 870.95 109.45C866.15 108.45 861.85 106.5 858.05 103.6C854.85 100.9 852.4 97.85 850.7 94.45C849 91.05 847.85 87.05 847.25 82.45C846.65 77.75 846.35 72.2 846.35 65.8V18.7C846.35 15 846.05 12.3 845.45 10.6C844.95 8.8 843.9 7.6 842.3 7C840.7 6.3 838.3 5.9 835.1 5.8V2.8C837.6 2.9 840.95 3 845.15 3.1C849.45 3.19999 853.9 3.24999 858.5 3.24999C863.1 3.24999 867.5 3.19999 871.7 3.1C876 3 879.55 2.9 882.35 2.8V5.8C878.95 5.9 876.35 6.3 874.55 7C872.85 7.6 871.7 8.8 871.1 10.6C870.5 12.3 870.2 15 870.2 18.7V75.25C870.2 80.25 870.5 84.7 871.1 88.6C871.8 92.4 872.9 95.6 874.4 98.2C876 100.7 878.15 102.6 880.85 103.9C883.55 105.2 886.9 105.85 890.9 105.85C897.9 105.85 903.35 104.2 907.25 100.9C911.25 97.6 914.05 93.05 915.65 87.25C917.35 81.35 918.2 74.6 918.2 67V27.4C918.2 21.9 917.85 17.7 917.15 14.8C916.45 11.8 915.05 9.64999 912.95 8.35C910.95 7.05 907.85 6.2 903.65 5.8V2.8C905.55 2.9 908.05 3 911.15 3.1C914.25 3.19999 917.15 3.24999 919.85 3.24999C922.25 3.24999 924.6 3.19999 926.9 3.1C929.3 3 931.3 2.9 932.9 2.8ZM1202.97 2.8C1202.57 7.9 1202.27 12.8 1202.07 17.5C1201.97 22.2 1201.92 25.8 1201.92 28.3C1201.92 30.5 1201.97 32.6 1202.07 34.6C1202.17 36.6 1202.27 38.3 1202.37 39.7H1198.92C1197.32 31.3 1195.27 24.65 1192.77 19.75C1190.37 14.85 1187.47 11.4 1184.07 9.39999C1180.67 7.29999 1176.67 6.24999 1172.07 6.24999H1168.62V91.9C1168.62 95.9 1169.02 98.9 1169.82 100.9C1170.72 102.9 1172.32 104.25 1174.62 104.95C1176.92 105.55 1180.27 105.9 1184.67 106V109C1181.57 108.9 1177.42 108.8 1172.22 108.7C1167.12 108.6 1161.77 108.55 1156.17 108.55C1150.67 108.55 1145.47 108.6 1140.57 108.7C1135.67 108.8 1131.72 108.9 1128.72 109V106C1133.22 105.9 1136.62 105.55 1138.92 104.95C1141.22 104.25 1142.77 102.9 1143.57 100.9C1144.37 98.9 1144.77 95.9 1144.77 91.9V6.24999H1141.47C1136.87 6.24999 1132.87 7.29999 1129.47 9.39999C1126.07 11.4 1123.17 14.85 1120.77 19.75C1118.37 24.55 1116.27 31.2 1114.47 39.7H1111.02C1111.22 38.3 1111.32 36.6 1111.32 34.6C1111.42 32.6 1111.47 30.5 1111.47 28.3C1111.47 25.8 1111.37 22.2 1111.17 17.5C1111.07 12.8 1110.82 7.9 1110.42 2.8C1115.02 2.9 1120.02 3 1125.42 3.1C1130.92 3.19999 1136.42 3.24999 1141.92 3.24999C1147.42 3.24999 1152.37 3.24999 1156.77 3.24999C1161.27 3.24999 1166.22 3.24999 1171.62 3.24999C1177.12 3.24999 1182.62 3.19999 1188.12 3.1C1193.62 3 1198.57 2.9 1202.97 2.8Z" fill="#181818" fill-opacity="0.02"/>
</svg>
