<svg width="1084" height="112" viewBox="0 0 1084 112" fill="none" xmlns="http://www.w3.org/2000/svg">
<path d="M0.1 2.8C2.7 2.9 6.1 3 10.3 3.1C14.5 3.19999 18.7 3.24999 22.9 3.24999C27.7 3.24999 32.35 3.19999 36.85 3.1C41.35 3 44.55 2.95 46.45 2.95C58.85 2.95 68.1 5.15 74.2 9.54999C80.4 13.95 83.5 19.6 83.5 26.5C83.5 30 82.45 33.55 80.35 37.15C78.25 40.75 75 43.95 70.6 46.75C66.2 49.55 60.5 51.6 53.5 52.9V53.2C62.9 53.9 70.35 55.6 75.85 58.3C81.35 61 85.3 64.25 87.7 68.05C90.1 71.85 91.3 75.8 91.3 79.9C91.3 86.2 89.65 91.5 86.35 95.8C83.05 100.1 78.3 103.4 72.1 105.7C65.9 107.9 58.5 109 49.9 109C47.5 109 44.05 108.95 39.55 108.85C35.05 108.65 29.6 108.55 23.2 108.55C18.8 108.55 14.5 108.6 10.3 108.7C6.1 108.7 2.7 108.8 0.1 109V106C3.3 105.8 5.7 105.4 7.3 104.8C8.9 104.2 9.95 103 10.45 101.2C11.05 99.4 11.35 96.7 11.35 93.1V18.7C11.35 15 11.05 12.3 10.45 10.6C9.95 8.8 8.85 7.6 7.15 7C5.55 6.3 3.2 5.9 0.1 5.8V2.8ZM44.5 5.8C40.6 5.8 38.05 6.65 36.85 8.35C35.75 10.05 35.2 13.5 35.2 18.7V93.1C35.2 96.6 35.45 99.25 35.95 101.05C36.55 102.85 37.55 104.05 38.95 104.65C40.45 105.25 42.65 105.55 45.55 105.55C52.75 105.55 58 103.3 61.3 98.8C64.7 94.2 66.4 87.7 66.4 79.3C66.4 71.6 64.45 65.65 60.55 61.45C56.75 57.25 50.4 55.15 41.5 55.15H28.75C28.75 55.15 28.75 54.75 28.75 53.95C28.75 53.05 28.75 52.6 28.75 52.6H41.65C46.35 52.6 49.95 51.5 52.45 49.3C54.95 47 56.7 44 57.7 40.3C58.7 36.5 59.2 32.45 59.2 28.15C59.2 20.75 58.05 15.2 55.75 11.5C53.45 7.7 49.7 5.8 44.5 5.8ZM371.192 2.8V5.8C367.792 5.9 365.192 6.3 363.392 7C361.692 7.6 360.542 8.8 359.942 10.6C359.342 12.3 359.042 15 359.042 18.7V94.9C359.042 98 359.242 100.3 359.642 101.8C360.142 103.3 361.042 104.3 362.342 104.8C363.742 105.3 365.792 105.55 368.492 105.55H375.842C379.242 105.55 382.442 104.75 385.442 103.15C388.442 101.55 391.142 99.3 393.542 96.4C395.942 93.4 397.942 89.85 399.542 85.75C401.142 81.65 402.342 77.1 403.142 72.1H406.592C406.292 75.5 406.142 79.9 406.142 85.3C406.142 87.6 406.192 90.95 406.292 95.35C406.392 99.75 406.692 104.3 407.192 109C402.092 108.8 396.342 108.7 389.942 108.7C383.542 108.6 377.842 108.55 372.842 108.55C370.342 108.55 367.142 108.55 363.242 108.55C359.342 108.55 355.142 108.6 350.642 108.7C346.142 108.7 341.592 108.75 336.992 108.85C332.392 108.85 328.042 108.9 323.942 109V106C327.142 105.8 329.542 105.4 331.142 104.8C332.742 104.2 333.792 103 334.292 101.2C334.892 99.4 335.192 96.7 335.192 93.1V18.7C335.192 15 334.892 12.3 334.292 10.6C333.792 8.8 332.692 7.6 330.992 7C329.392 6.3 327.042 5.9 323.942 5.8V2.8C326.442 2.9 329.792 3 333.992 3.1C338.292 3.19999 342.842 3.24999 347.642 3.24999C352.042 3.24999 356.342 3.19999 360.542 3.1C364.842 3 368.392 2.9 371.192 2.8ZM693.591 0.699991C704.191 0.699991 713.441 2.84999 721.341 7.15C729.341 11.45 735.541 17.65 739.941 25.75C744.341 33.75 746.541 43.5 746.541 55C746.541 66.2 744.291 76 739.791 84.4C735.291 92.8 728.991 99.35 720.891 104.05C712.891 108.75 703.741 111.1 693.441 111.1C682.841 111.1 673.541 108.95 665.541 104.65C657.641 100.35 651.491 94.15 647.091 86.05C642.691 77.95 640.491 68.2 640.491 56.8C640.491 45.6 642.741 35.8 647.241 27.4C651.841 19 658.091 12.45 665.991 7.75C673.991 3.04999 683.191 0.699991 693.591 0.699991ZM692.991 3.39999C687.391 3.39999 682.491 5.64999 678.291 10.15C674.191 14.65 670.991 20.85 668.691 28.75C666.491 36.65 665.391 45.8 665.391 56.2C665.391 66.8 666.641 76.05 669.141 83.95C671.741 91.75 675.191 97.8 679.491 102.1C683.891 106.3 688.741 108.4 694.041 108.4C699.641 108.4 704.491 106.15 708.591 101.65C712.791 97.15 715.991 90.95 718.191 83.05C720.491 75.05 721.641 65.9 721.641 55.6C721.641 44.9 720.341 35.65 717.741 27.85C715.241 20.05 711.791 14.05 707.391 9.85C703.091 5.54999 698.291 3.39999 692.991 3.39999ZM1037.24 0.699991C1044.04 0.699991 1049.59 1.64999 1053.89 3.55C1058.19 5.45 1062.04 7.75 1065.44 10.45C1066.64 11.35 1067.64 11.8 1068.44 11.8C1070.34 11.8 1071.59 8.8 1072.19 2.8H1075.64C1075.44 6.7 1075.29 11.45 1075.19 17.05C1075.09 22.55 1075.04 29.9 1075.04 39.1H1071.59C1070.89 33.1 1069.79 27.9 1068.29 23.5C1066.89 19 1064.24 15.15 1060.34 11.95C1057.94 9.65 1054.94 7.85 1051.34 6.55C1047.84 5.24999 1044.29 4.59999 1040.69 4.59999C1035.19 4.59999 1030.49 6.04999 1026.59 8.94999C1022.69 11.75 1019.49 15.6 1016.99 20.5C1014.49 25.4 1012.64 30.95 1011.44 37.15C1010.24 43.25 1009.64 49.6 1009.64 56.2C1009.64 74.2 1012.09 87.35 1016.99 95.65C1021.99 103.95 1029.14 108.1 1038.44 108.1C1040.84 108.1 1042.94 107.8 1044.74 107.2C1046.54 106.6 1047.99 105.9 1049.09 105.1C1050.49 104.1 1051.44 103.05 1051.94 101.95C1052.44 100.75 1052.69 99.2 1052.69 97.3V82.6C1052.69 78 1052.29 74.6 1051.49 72.4C1050.79 70.1 1049.34 68.55 1047.14 67.75C1044.94 66.95 1041.74 66.5 1037.54 66.4V63.4C1039.64 63.5 1042.14 63.6 1045.04 63.7C1048.04 63.7 1051.14 63.75 1054.34 63.85C1057.54 63.85 1060.49 63.85 1063.19 63.85C1067.39 63.85 1071.24 63.8 1074.74 63.7C1078.24 63.6 1081.09 63.5 1083.29 63.4V66.4C1081.39 66.5 1079.94 66.85 1078.94 67.45C1078.04 68.05 1077.39 69.25 1076.99 71.05C1076.69 72.85 1076.54 75.6 1076.54 79.3V109H1073.54C1073.44 107.3 1073.04 105.45 1072.34 103.45C1071.74 101.45 1070.69 100.45 1069.19 100.45C1068.49 100.45 1067.54 100.65 1066.34 101.05C1065.24 101.35 1063.49 102.2 1061.09 103.6C1057.39 105.7 1053.49 107.5 1049.39 109C1045.29 110.4 1040.99 111.1 1036.49 111.1C1024.89 111.1 1015.09 108.95 1007.09 104.65C999.086 100.35 993.036 94.2 988.936 86.2C984.936 78.1 982.936 68.4 982.936 57.1C982.936 45.7 985.236 35.8 989.836 27.4C994.536 19 1000.94 12.45 1009.04 7.75C1017.24 3.04999 1026.64 0.699991 1037.24 0.699991Z" fill="#181818" fill-opacity="0.02"/>
</svg>
