<svg width="1186" height="138" viewBox="0 0 1186 138" fill="none" xmlns="http://www.w3.org/2000/svg">
<path d="M0.524805 2.8C3.02481 2.9 6.37481 3 10.5748 3.1C14.8748 3.19999 19.1248 3.24999 23.3248 3.24999C28.1248 3.24999 32.7748 3.19999 37.2748 3.1C41.7748 3 44.9748 2.95 46.8748 2.95C60.7748 2.95 71.1748 5.7 78.0748 11.2C84.9748 16.7 88.4248 23.8 88.4248 32.5C88.4248 36.1 87.7248 39.9 86.3248 43.9C84.9248 47.8 82.5248 51.45 79.1248 54.85C75.8248 58.15 71.2748 60.85 65.4748 62.95C59.6748 65.05 52.3748 66.1 43.5748 66.1H28.2748V63.1H42.0748C47.9748 63.1 52.4248 61.75 55.4248 59.05C58.5248 56.35 60.6248 52.8 61.7248 48.4C62.9248 44 63.5248 39.25 63.5248 34.15C63.5248 24.65 62.1248 17.55 59.3248 12.85C56.5248 8.15 51.7248 5.8 44.9248 5.8C41.0248 5.8 38.4748 6.65 37.2748 8.35C36.1748 10.05 35.6248 13.5 35.6248 18.7V92.2C35.6248 96.1 36.0248 99 36.8248 100.9C37.6248 102.8 39.1748 104.05 41.4748 104.65C43.7748 105.25 47.1748 105.6 51.6748 105.7V109C48.5748 108.9 44.5748 108.8 39.6748 108.7C34.7748 108.6 29.6248 108.55 24.2248 108.55C19.9248 108.55 15.7248 108.6 11.6248 108.7C7.5248 108.8 3.8248 108.9 0.524805 109V106C3.7248 105.8 6.1248 105.4 7.72481 104.8C9.32481 104.2 10.3748 103 10.8748 101.2C11.4748 99.4 11.7748 96.7 11.7748 93.1V18.7C11.7748 15 11.4748 12.3 10.8748 10.6C10.3748 8.8 9.27481 7.6 7.5748 7C5.97481 6.3 3.62481 5.9 0.524805 5.8V2.8ZM158.136 2.8C160.636 2.9 163.986 3 168.186 3.1C172.486 3.19999 176.736 3.24999 180.936 3.24999C185.736 3.24999 190.386 3.19999 194.886 3.1C199.386 3 202.586 2.95 204.486 2.95C213.786 2.95 221.486 4 227.586 6.09999C233.786 8.1 238.386 11.05 241.386 14.95C244.486 18.85 246.036 23.55 246.036 29.05C246.036 32.45 245.336 35.9 243.936 39.4C242.536 42.8 240.136 46 236.736 49C233.436 51.9 228.886 54.25 223.086 56.05C217.286 57.75 209.986 58.6 201.186 58.6H186.786V55.6H199.686C205.586 55.6 210.036 54.5 213.036 52.3C216.136 50 218.236 47 219.336 43.3C220.536 39.5 221.136 35.3 221.136 30.7C221.136 22.8 219.736 16.7 216.936 12.4C214.136 7.99999 209.336 5.8 202.536 5.8C198.636 5.8 196.086 6.65 194.886 8.35C193.786 10.05 193.236 13.5 193.236 18.7V93.1C193.236 96.7 193.486 99.4 193.986 101.2C194.586 103 195.686 104.2 197.286 104.8C198.886 105.4 201.286 105.8 204.486 106V109C201.786 108.8 198.386 108.7 194.286 108.7C190.186 108.6 186.036 108.55 181.836 108.55C177.036 108.55 172.486 108.6 168.186 108.7C163.986 108.7 160.636 108.8 158.136 109V106C161.336 105.8 163.736 105.4 165.336 104.8C166.936 104.2 167.986 103 168.486 101.2C169.086 99.4 169.386 96.7 169.386 93.1V18.7C169.386 15 169.086 12.3 168.486 10.6C167.986 8.8 166.886 7.6 165.186 7C163.586 6.3 161.236 5.9 158.136 5.8V2.8ZM186.486 56.05C190.786 56.15 194.486 56.35 197.586 56.65C200.786 56.95 203.586 57.25 205.986 57.55C208.386 57.75 210.536 57.9 212.436 58C221.536 58.8 228.236 60.75 232.536 63.85C236.936 66.95 239.786 71.6 241.086 77.8L244.536 93.25C245.436 97.25 246.386 100.05 247.386 101.65C248.386 103.25 249.836 104.05 251.736 104.05C253.036 103.95 254.086 103.65 254.886 103.15C255.786 102.55 256.736 101.7 257.736 100.6L259.836 102.4C257.136 105.5 254.236 107.7 251.136 109C248.036 110.4 244.286 111.1 239.886 111.1C234.486 111.1 230.036 109.95 226.536 107.65C223.036 105.35 220.736 101.1 219.636 94.9L216.936 79.9C216.236 75.7 215.386 72.05 214.386 68.95C213.386 65.75 211.986 63.25 210.186 61.45C208.486 59.55 206.086 58.6 202.986 58.6H186.786L186.486 56.05ZM378.694 0.699991C389.294 0.699991 398.544 2.84999 406.444 7.15C414.444 11.45 420.644 17.65 425.044 25.75C429.444 33.75 431.644 43.5 431.644 55C431.644 66.2 429.394 76 424.894 84.4C420.394 92.8 414.094 99.35 405.994 104.05C397.994 108.75 388.844 111.1 378.544 111.1C367.944 111.1 358.644 108.95 350.644 104.65C342.744 100.35 336.594 94.15 332.194 86.05C327.794 77.95 325.594 68.2 325.594 56.8C325.594 45.6 327.844 35.8 332.344 27.4C336.944 19 343.194 12.45 351.094 7.75C359.094 3.04999 368.294 0.699991 378.694 0.699991ZM378.094 3.39999C372.494 3.39999 367.594 5.64999 363.394 10.15C359.294 14.65 356.094 20.85 353.794 28.75C351.594 36.65 350.494 45.8 350.494 56.2C350.494 66.8 351.744 76.05 354.244 83.95C356.844 91.75 360.294 97.8 364.594 102.1C368.994 106.3 373.844 108.4 379.144 108.4C384.744 108.4 389.594 106.15 393.694 101.65C397.894 97.15 401.094 90.95 403.294 83.05C405.594 75.05 406.744 65.9 406.744 55.6C406.744 44.9 405.444 35.65 402.844 27.85C400.344 20.05 396.894 14.05 392.494 9.85C388.194 5.54999 383.394 3.39999 378.094 3.39999ZM495.863 137.2V134.2C499.863 133.8 503.263 132.6 506.063 130.6C508.863 128.7 511.013 125.4 512.513 120.7C514.013 116 514.763 109.4 514.763 100.9V18.7C514.763 15 514.463 12.3 513.863 10.6C513.363 8.8 512.313 7.6 510.713 7C509.113 6.3 506.713 5.9 503.513 5.8V2.8C506.013 2.9 509.263 3 513.263 3.1C517.363 3.19999 521.663 3.24999 526.163 3.24999C530.663 3.24999 535.013 3.19999 539.213 3.1C543.513 3 547.063 2.9 549.863 2.8V5.8C546.763 5.9 544.363 6.3 542.663 7C541.063 7.6 539.963 8.8 539.363 10.6C538.863 12.3 538.613 15 538.613 18.7V73.6C538.613 77.7 538.613 82.15 538.613 86.95C538.613 91.65 538.413 96.25 538.013 100.75C537.713 105.25 537.063 109.25 536.063 112.75C534.063 119.65 529.713 125.45 523.013 130.15C516.413 134.85 507.363 137.2 495.863 137.2ZM701.552 2.8C701.152 7.2 700.852 11.45 700.652 15.55C700.552 19.65 700.502 22.8 700.502 25C700.502 27 700.552 28.9 700.652 30.7C700.752 32.5 700.852 34 700.952 35.2H697.502C696.502 27.9 694.952 22.15 692.852 17.95C690.752 13.65 688.002 10.65 684.602 8.94999C681.302 7.14999 677.402 6.24999 672.902 6.24999H666.752C663.852 6.24999 661.652 6.49999 660.152 7C658.652 7.5 657.652 8.5 657.152 10C656.652 11.5 656.402 13.8 656.402 16.9V94.9C656.402 98 656.652 100.3 657.152 101.8C657.652 103.3 658.652 104.3 660.152 104.8C661.652 105.3 663.852 105.55 666.752 105.55H674.102C678.602 105.55 682.552 104.6 685.952 102.7C689.452 100.7 692.402 97.35 694.802 92.65C697.302 87.95 699.202 81.6 700.502 73.6H703.952C703.652 76.8 703.502 81 703.502 86.2C703.502 88.5 703.552 91.75 703.652 95.95C703.752 100.15 704.052 104.5 704.552 109C699.452 108.8 693.702 108.7 687.302 108.7C680.902 108.6 675.202 108.55 670.202 108.55C667.702 108.55 664.502 108.55 660.602 108.55C656.702 108.55 652.502 108.6 648.002 108.7C643.502 108.7 638.952 108.75 634.352 108.85C629.752 108.85 625.402 108.9 621.302 109V106C624.502 105.8 626.902 105.4 628.502 104.8C630.102 104.2 631.152 103 631.652 101.2C632.252 99.4 632.552 96.7 632.552 93.1V18.7C632.552 15 632.252 12.3 631.652 10.6C631.152 8.8 630.052 7.6 628.352 7C626.752 6.3 624.402 5.9 621.302 5.8V2.8C625.402 2.9 629.752 3 634.352 3.1C638.952 3.1 643.502 3.14999 648.002 3.24999C652.502 3.24999 656.702 3.24999 660.602 3.24999C664.502 3.24999 667.702 3.24999 670.202 3.24999C674.802 3.24999 680.002 3.24999 685.802 3.24999C691.702 3.14999 696.952 3 701.552 2.8ZM678.152 54.1C678.152 54.1 678.152 54.6 678.152 55.6C678.152 56.6 678.152 57.1 678.152 57.1H651.902C651.902 57.1 651.902 56.6 651.902 55.6C651.902 54.6 651.902 54.1 651.902 54.1H678.152ZM682.502 34.3C682.102 40 681.902 44.35 681.902 47.35C682.002 50.35 682.052 53.1 682.052 55.6C682.052 58.1 682.102 60.85 682.202 63.85C682.302 66.85 682.552 71.2 682.952 76.9H679.502C679.002 73.4 678.052 70.15 676.652 67.15C675.352 64.15 673.452 61.75 670.952 59.95C668.452 58.05 665.202 57.1 661.202 57.1V54.1C664.202 54.1 666.752 53.5 668.852 52.3C670.952 51 672.652 49.35 673.952 47.35C675.352 45.25 676.452 43.05 677.252 40.75C678.052 38.45 678.652 36.3 679.052 34.3H682.502ZM833.071 0.699991C839.671 0.699991 845.071 1.69999 849.271 3.7C853.571 5.6 857.371 7.85 860.671 10.45C862.671 11.95 864.171 12.15 865.171 11.05C866.271 9.85 867.021 7.1 867.421 2.8H870.871C870.671 6.7 870.521 11.45 870.421 17.05C870.321 22.55 870.271 29.9 870.271 39.1H866.821C866.321 34.5 865.671 30.6 864.871 27.4C864.071 24.1 862.971 21.2 861.571 18.7C860.171 16.2 858.171 13.95 855.571 11.95C853.071 9.44999 850.171 7.59999 846.871 6.4C843.571 5.2 840.121 4.59999 836.521 4.59999C831.121 4.59999 826.521 6.04999 822.721 8.94999C818.921 11.75 815.821 15.6 813.421 20.5C811.121 25.4 809.421 30.95 808.321 37.15C807.221 43.25 806.671 49.6 806.671 56.2C806.671 62.9 807.221 69.35 808.321 75.55C809.521 81.65 811.321 87.1 813.721 91.9C816.221 96.7 819.421 100.5 823.321 103.3C827.221 106.1 831.821 107.5 837.121 107.5C840.421 107.5 843.721 106.9 847.021 105.7C850.421 104.4 853.321 102.55 855.721 100.15C859.621 97.15 862.271 93.45 863.671 89.05C865.071 84.55 866.121 78.6 866.821 71.2H870.271C870.271 80.7 870.321 88.4 870.421 94.3C870.521 100.1 870.671 105 870.871 109H867.421C867.021 104.7 866.321 102 865.321 100.9C864.421 99.8 862.871 99.95 860.671 101.35C856.971 103.95 853.021 106.25 848.821 108.25C844.721 110.15 839.421 111.1 832.921 111.1C822.321 111.1 813.021 108.95 805.021 104.65C797.121 100.35 790.971 94.15 786.571 86.05C782.171 77.95 779.971 68.2 779.971 56.8C779.971 45.6 782.221 35.8 786.721 27.4C791.321 19 797.571 12.45 805.471 7.75C813.471 3.04999 822.671 0.699991 833.071 0.699991ZM1037.83 2.8C1037.43 7.9 1037.13 12.8 1036.93 17.5C1036.83 22.2 1036.78 25.8 1036.78 28.3C1036.78 30.5 1036.83 32.6 1036.93 34.6C1037.03 36.6 1037.13 38.3 1037.23 39.7H1033.78C1032.18 31.3 1030.13 24.65 1027.63 19.75C1025.23 14.85 1022.33 11.4 1018.93 9.39999C1015.53 7.29999 1011.53 6.24999 1006.93 6.24999H1003.48V91.9C1003.48 95.9 1003.88 98.9 1004.68 100.9C1005.58 102.9 1007.18 104.25 1009.48 104.95C1011.78 105.55 1015.13 105.9 1019.53 106V109C1016.43 108.9 1012.28 108.8 1007.08 108.7C1001.98 108.6 996.632 108.55 991.032 108.55C985.532 108.55 980.332 108.6 975.432 108.7C970.532 108.8 966.582 108.9 963.582 109V106C968.082 105.9 971.482 105.55 973.782 104.95C976.082 104.25 977.632 102.9 978.432 100.9C979.232 98.9 979.632 95.9 979.632 91.9V6.24999H976.332C971.732 6.24999 967.732 7.29999 964.332 9.39999C960.932 11.4 958.032 14.85 955.632 19.75C953.232 24.55 951.132 31.2 949.332 39.7H945.882C946.082 38.3 946.182 36.6 946.182 34.6C946.282 32.6 946.332 30.5 946.332 28.3C946.332 25.8 946.232 22.2 946.032 17.5C945.932 12.8 945.682 7.9 945.282 2.8C949.882 2.9 954.882 3 960.282 3.1C965.782 3.19999 971.282 3.24999 976.782 3.24999C982.282 3.24999 987.232 3.24999 991.632 3.24999C996.132 3.24999 1001.08 3.24999 1006.48 3.24999C1011.98 3.24999 1017.48 3.19999 1022.98 3.1C1028.48 3 1033.43 2.9 1037.83 2.8ZM1146.58 0.849998C1152.48 0.849998 1157.03 1.5 1160.23 2.8C1163.43 4 1166.18 5.29999 1168.48 6.69999C1169.68 7.4 1170.63 7.95 1171.33 8.35C1172.13 8.65 1172.88 8.79999 1173.58 8.79999C1174.58 8.79999 1175.28 8.24999 1175.68 7.15C1176.18 6.04999 1176.58 4.39999 1176.88 2.2H1180.33C1180.23 4.1 1180.08 6.4 1179.88 9.1C1179.78 11.7 1179.68 15.15 1179.58 19.45C1179.58 23.75 1179.58 29.4 1179.58 36.4H1176.13C1175.73 31.2 1174.53 26.15 1172.53 21.25C1170.53 16.35 1167.68 12.35 1163.98 9.25C1160.38 6.05 1155.93 4.45 1150.63 4.45C1145.83 4.45 1141.88 5.8 1138.78 8.5C1135.68 11.2 1134.13 14.95 1134.13 19.75C1134.13 23.75 1135.13 27.2 1137.13 30.1C1139.13 32.9 1142.03 35.65 1145.83 38.35C1149.73 41.05 1154.43 44.3 1159.93 48.1C1164.73 51.2 1169.03 54.3 1172.83 57.4C1176.63 60.5 1179.68 64 1181.98 67.9C1184.28 71.8 1185.43 76.45 1185.43 81.85C1185.43 88.45 1183.68 93.9 1180.18 98.2C1176.78 102.5 1172.28 105.75 1166.68 107.95C1161.08 110.05 1154.93 111.1 1148.23 111.1C1142.03 111.1 1137.08 110.5 1133.38 109.3C1129.68 108.1 1126.58 106.85 1124.08 105.55C1121.88 104.15 1120.18 103.45 1118.98 103.45C1117.98 103.45 1117.23 104 1116.73 105.1C1116.33 106.2 1115.98 107.85 1115.68 110.05H1112.23C1112.43 107.65 1112.53 104.85 1112.53 101.65C1112.63 98.45 1112.68 94.3 1112.68 89.2C1112.78 84 1112.83 77.45 1112.83 69.55H1116.28C1116.68 76.15 1117.78 82.35 1119.58 88.15C1121.48 93.85 1124.33 98.45 1128.13 101.95C1132.03 105.45 1137.18 107.2 1143.58 107.2C1147.08 107.2 1150.18 106.6 1152.88 105.4C1155.68 104.1 1157.93 102.2 1159.63 99.7C1161.33 97.2 1162.18 94.1 1162.18 90.4C1162.18 86.2 1161.18 82.55 1159.18 79.45C1157.28 76.35 1154.63 73.45 1151.23 70.75C1147.93 68.05 1144.08 65.3 1139.68 62.5C1134.98 59.4 1130.58 56.3 1126.48 53.2C1122.38 50.1 1119.08 46.55 1116.58 42.55C1114.18 38.55 1112.98 33.8 1112.98 28.3C1112.98 22 1114.53 16.85 1117.63 12.85C1120.83 8.74999 1124.98 5.74999 1130.08 3.84999C1135.28 1.85 1140.78 0.849998 1146.58 0.849998Z" fill="#181818" fill-opacity="0.02"/>
</svg>
