<svg width="1188" height="112" viewBox="0 0 1188 112" fill="none" xmlns="http://www.w3.org/2000/svg">
<path d="M0.493555 2.8C2.99356 2.9 6.34356 3 10.5436 3.1C14.8436 3.19999 19.0936 3.24999 23.2936 3.24999C28.0936 3.24999 32.7436 3.19999 37.2436 3.1C41.7436 3 44.9436 2.95 46.8436 2.95C56.1436 2.95 63.8436 4 69.9436 6.09999C76.1436 8.1 80.7436 11.05 83.7436 14.95C86.8436 18.85 88.3936 23.55 88.3936 29.05C88.3936 32.45 87.6936 35.9 86.2936 39.4C84.8936 42.8 82.4936 46 79.0936 49C75.7936 51.9 71.2436 54.25 65.4436 56.05C59.6436 57.75 52.3436 58.6 43.5436 58.6H29.1436V55.6H42.0436C47.9436 55.6 52.3936 54.5 55.3936 52.3C58.4936 50 60.5936 47 61.6936 43.3C62.8936 39.5 63.4936 35.3 63.4936 30.7C63.4936 22.8 62.0936 16.7 59.2936 12.4C56.4936 7.99999 51.6936 5.8 44.8936 5.8C40.9936 5.8 38.4436 6.65 37.2436 8.35C36.1436 10.05 35.5936 13.5 35.5936 18.7V93.1C35.5936 96.7 35.8436 99.4 36.3436 101.2C36.9436 103 38.0436 104.2 39.6436 104.8C41.2436 105.4 43.6436 105.8 46.8436 106V109C44.1436 108.8 40.7436 108.7 36.6436 108.7C32.5436 108.6 28.3936 108.55 24.1936 108.55C19.3936 108.55 14.8436 108.6 10.5436 108.7C6.34356 108.7 2.99356 108.8 0.493555 109V106C3.69355 105.8 6.09355 105.4 7.69356 104.8C9.29356 104.2 10.3436 103 10.8436 101.2C11.4436 99.4 11.7436 96.7 11.7436 93.1V18.7C11.7436 15 11.4436 12.3 10.8436 10.6C10.3436 8.8 9.24356 7.6 7.54355 7C5.94356 6.3 3.59356 5.9 0.493555 5.8V2.8ZM28.8436 56.05C33.1436 56.15 36.8436 56.35 39.9436 56.65C43.1436 56.95 45.9436 57.25 48.3436 57.55C50.7436 57.75 52.8936 57.9 54.7936 58C63.8936 58.8 70.5936 60.75 74.8936 63.85C79.2936 66.95 82.1436 71.6 83.4436 77.8L86.8936 93.25C87.7936 97.25 88.7436 100.05 89.7436 101.65C90.7436 103.25 92.1936 104.05 94.0936 104.05C95.3936 103.95 96.4436 103.65 97.2436 103.15C98.1436 102.55 99.0936 101.7 100.094 100.6L102.194 102.4C99.4936 105.5 96.5936 107.7 93.4936 109C90.3936 110.4 86.6436 111.1 82.2436 111.1C76.8436 111.1 72.3936 109.95 68.8936 107.65C65.3936 105.35 63.0936 101.1 61.9936 94.9L59.2936 79.9C58.5936 75.7 57.7436 72.05 56.7436 68.95C55.7436 65.75 54.3436 63.25 52.5436 61.45C50.8436 59.55 48.4436 58.6 45.3436 58.6H29.1436L28.8436 56.05ZM270.851 2.8C270.451 7.2 270.151 11.45 269.951 15.55C269.851 19.65 269.801 22.8 269.801 25C269.801 27 269.851 28.9 269.951 30.7C270.051 32.5 270.151 34 270.251 35.2H266.801C265.801 27.9 264.251 22.15 262.151 17.95C260.051 13.65 257.301 10.65 253.901 8.94999C250.601 7.14999 246.701 6.24999 242.201 6.24999H236.051C233.151 6.24999 230.951 6.49999 229.451 7C227.951 7.5 226.951 8.5 226.451 10C225.951 11.5 225.701 13.8 225.701 16.9V94.9C225.701 98 225.951 100.3 226.451 101.8C226.951 103.3 227.951 104.3 229.451 104.8C230.951 105.3 233.151 105.55 236.051 105.55H243.401C247.901 105.55 251.851 104.6 255.251 102.7C258.751 100.7 261.701 97.35 264.101 92.65C266.601 87.95 268.501 81.6 269.801 73.6H273.251C272.951 76.8 272.801 81 272.801 86.2C272.801 88.5 272.851 91.75 272.951 95.95C273.051 100.15 273.351 104.5 273.851 109C268.751 108.8 263.001 108.7 256.601 108.7C250.201 108.6 244.501 108.55 239.501 108.55C237.001 108.55 233.801 108.55 229.901 108.55C226.001 108.55 221.801 108.6 217.301 108.7C212.801 108.7 208.251 108.75 203.651 108.85C199.051 108.85 194.701 108.9 190.601 109V106C193.801 105.8 196.201 105.4 197.801 104.8C199.401 104.2 200.451 103 200.951 101.2C201.551 99.4 201.851 96.7 201.851 93.1V18.7C201.851 15 201.551 12.3 200.951 10.6C200.451 8.8 199.351 7.6 197.651 7C196.051 6.3 193.701 5.9 190.601 5.8V2.8C194.701 2.9 199.051 3 203.651 3.1C208.251 3.1 212.801 3.14999 217.301 3.24999C221.801 3.24999 226.001 3.24999 229.901 3.24999C233.801 3.24999 237.001 3.24999 239.501 3.24999C244.101 3.24999 249.301 3.24999 255.101 3.24999C261.001 3.14999 266.251 3 270.851 2.8ZM247.451 54.1C247.451 54.1 247.451 54.6 247.451 55.6C247.451 56.6 247.451 57.1 247.451 57.1H221.201C221.201 57.1 221.201 56.6 221.201 55.6C221.201 54.6 221.201 54.1 221.201 54.1H247.451ZM251.801 34.3C251.401 40 251.201 44.35 251.201 47.35C251.301 50.35 251.351 53.1 251.351 55.6C251.351 58.1 251.401 60.85 251.501 63.85C251.601 66.85 251.851 71.2 252.251 76.9H248.801C248.301 73.4 247.351 70.15 245.951 67.15C244.651 64.15 242.751 61.75 240.251 59.95C237.751 58.05 234.501 57.1 230.501 57.1V54.1C233.501 54.1 236.051 53.5 238.151 52.3C240.251 51 241.951 49.35 243.251 47.35C244.651 45.25 245.751 43.05 246.551 40.75C247.351 38.45 247.951 36.3 248.351 34.3H251.801ZM467.201 2.8V5.8C465.001 6.6 462.651 8.35 460.151 11.05C457.751 13.75 455.501 17.95 453.401 23.65L421.751 109.3C420.951 109.2 420.101 109.15 419.201 109.15C418.301 109.15 417.401 109.15 416.501 109.15C415.701 109.15 414.851 109.15 413.951 109.15C413.051 109.15 412.201 109.2 411.401 109.3L373.151 15.4C371.751 11.8 370.201 9.35 368.501 8.04999C366.801 6.64999 365.201 5.9 363.701 5.8V2.8C366.701 2.9 370.201 3 374.201 3.1C378.301 3.19999 382.401 3.24999 386.501 3.24999C391.101 3.24999 395.401 3.19999 399.401 3.1C403.501 3 406.801 2.9 409.301 2.8V5.8C406.101 5.9 403.601 6.3 401.801 7C400.001 7.6 399.001 8.8 398.801 10.6C398.601 12.3 399.201 14.9 400.601 18.4L427.901 87.85L424.751 91.6L445.451 35.8C448.151 28.3 449.551 22.4 449.651 18.1C449.751 13.8 448.701 10.7 446.501 8.79999C444.301 6.89999 441.151 5.9 437.051 5.8V2.8C440.451 2.9 443.651 3 446.651 3.1C449.651 3.19999 452.701 3.24999 455.801 3.24999C458.001 3.24999 460.051 3.19999 461.951 3.1C463.951 3 465.701 2.9 467.201 2.8ZM603.396 2.8V5.8C600.196 5.9 597.746 6.3 596.046 7C594.446 7.6 593.396 8.8 592.896 10.6C592.396 12.3 592.146 15 592.146 18.7V93.1C592.146 96.7 592.396 99.4 592.896 101.2C593.496 103 594.596 104.2 596.196 104.8C597.796 105.4 600.196 105.8 603.396 106V109C600.696 108.8 597.296 108.7 593.196 108.7C589.096 108.6 584.946 108.55 580.746 108.55C575.846 108.55 571.296 108.6 567.096 108.7C562.996 108.7 559.646 108.8 557.046 109V106C560.246 105.8 562.646 105.4 564.246 104.8C565.846 104.2 566.896 103 567.396 101.2C567.996 99.4 568.296 96.7 568.296 93.1V18.7C568.296 15 567.996 12.3 567.396 10.6C566.896 8.8 565.796 7.6 564.096 7C562.496 6.3 560.146 5.9 557.046 5.8V2.8C559.646 2.9 562.996 3 567.096 3.1C571.296 3.19999 575.846 3.24999 580.746 3.24999C584.946 3.24999 589.096 3.19999 593.196 3.1C597.296 3 600.696 2.9 603.396 2.8ZM779.943 2.8C779.543 7.2 779.243 11.45 779.043 15.55C778.943 19.65 778.893 22.8 778.893 25C778.893 27 778.943 28.9 779.043 30.7C779.143 32.5 779.243 34 779.343 35.2H775.893C774.893 27.9 773.343 22.15 771.243 17.95C769.143 13.65 766.393 10.65 762.993 8.94999C759.693 7.14999 755.793 6.24999 751.293 6.24999H745.143C742.243 6.24999 740.043 6.49999 738.543 7C737.043 7.5 736.043 8.5 735.543 10C735.043 11.5 734.793 13.8 734.793 16.9V94.9C734.793 98 735.043 100.3 735.543 101.8C736.043 103.3 737.043 104.3 738.543 104.8C740.043 105.3 742.243 105.55 745.143 105.55H752.493C756.993 105.55 760.943 104.6 764.343 102.7C767.843 100.7 770.793 97.35 773.193 92.65C775.693 87.95 777.593 81.6 778.893 73.6H782.343C782.043 76.8 781.893 81 781.893 86.2C781.893 88.5 781.943 91.75 782.043 95.95C782.143 100.15 782.443 104.5 782.943 109C777.843 108.8 772.093 108.7 765.693 108.7C759.293 108.6 753.593 108.55 748.593 108.55C746.093 108.55 742.893 108.55 738.993 108.55C735.093 108.55 730.893 108.6 726.393 108.7C721.893 108.7 717.343 108.75 712.743 108.85C708.143 108.85 703.793 108.9 699.693 109V106C702.893 105.8 705.293 105.4 706.893 104.8C708.493 104.2 709.543 103 710.043 101.2C710.643 99.4 710.943 96.7 710.943 93.1V18.7C710.943 15 710.643 12.3 710.043 10.6C709.543 8.8 708.443 7.6 706.743 7C705.143 6.3 702.793 5.9 699.693 5.8V2.8C703.793 2.9 708.143 3 712.743 3.1C717.343 3.1 721.893 3.14999 726.393 3.24999C730.893 3.24999 735.093 3.24999 738.993 3.24999C742.893 3.24999 746.093 3.24999 748.593 3.24999C753.193 3.24999 758.393 3.24999 764.193 3.24999C770.093 3.14999 775.343 3 779.943 2.8ZM756.543 54.1C756.543 54.1 756.543 54.6 756.543 55.6C756.543 56.6 756.543 57.1 756.543 57.1H730.293C730.293 57.1 730.293 56.6 730.293 55.6C730.293 54.6 730.293 54.1 730.293 54.1H756.543ZM760.893 34.3C760.493 40 760.293 44.35 760.293 47.35C760.393 50.35 760.443 53.1 760.443 55.6C760.443 58.1 760.493 60.85 760.593 63.85C760.693 66.85 760.943 71.2 761.343 76.9H757.893C757.393 73.4 756.443 70.15 755.043 67.15C753.743 64.15 751.843 61.75 749.343 59.95C746.843 58.05 743.593 57.1 739.593 57.1V54.1C742.593 54.1 745.143 53.5 747.243 52.3C749.343 51 751.043 49.35 752.343 47.35C753.743 45.25 754.843 43.05 755.643 40.75C756.443 38.45 757.043 36.3 757.443 34.3H760.893ZM1020.69 2.8V5.8C1018.49 6.6 1016.19 8.35 1013.79 11.05C1011.39 13.65 1009.29 17.85 1007.49 23.65L981.093 109.3C980.293 109.2 979.443 109.15 978.543 109.15C977.643 109.15 976.743 109.15 975.843 109.15C974.943 109.15 974.043 109.15 973.143 109.15C972.243 109.15 971.393 109.2 970.593 109.3L939.093 13.9C938.093 10.8 936.843 8.69999 935.343 7.59999C933.943 6.49999 932.443 5.9 930.843 5.8V2.8C933.643 2.9 936.943 3 940.743 3.1C944.643 3.19999 948.493 3.24999 952.293 3.24999C956.693 3.24999 960.793 3.19999 964.593 3.1C968.493 3 971.593 2.9 973.893 2.8V5.8C970.893 5.9 968.493 6.24999 966.693 6.84999C964.993 7.45 963.993 8.6 963.693 10.3C963.493 12 963.993 14.7 965.193 18.4L986.493 83.5L983.043 89.65L999.993 35.8C1002.39 28.2 1003.54 22.25 1003.44 17.95C1003.34 13.65 1002.19 10.6 999.993 8.79999C997.793 6.89999 994.643 5.9 990.543 5.8V2.8C993.943 2.9 997.143 3 1000.14 3.1C1003.14 3.19999 1006.14 3.24999 1009.14 3.24999C1011.44 3.24999 1013.54 3.19999 1015.44 3.1C1017.44 3 1019.19 2.9 1020.69 2.8ZM913.593 2.8V5.8C911.593 6.09999 910.193 6.84999 909.393 8.04999C908.593 9.14999 908.243 10.65 908.343 12.55C908.543 14.35 908.993 16.3 909.693 18.4L932.643 85L928.593 90.4L947.793 34.3L949.893 38.35L926.343 109.3C925.543 109.2 924.693 109.15 923.793 109.15C922.893 109.15 921.993 109.15 921.093 109.15C920.193 109.15 919.293 109.15 918.393 109.15C917.493 109.15 916.643 109.2 915.843 109.3L882.243 15.4C880.943 11.7 879.393 9.2 877.593 7.9C875.893 6.6 874.293 5.9 872.793 5.8V2.8C875.793 2.9 879.343 3 883.443 3.1C887.543 3.19999 891.443 3.24999 895.143 3.24999C899.143 3.24999 902.693 3.19999 905.793 3.1C908.993 3 911.593 2.9 913.593 2.8ZM1148.61 0.849998C1154.51 0.849998 1159.06 1.5 1162.26 2.8C1165.46 4 1168.21 5.29999 1170.51 6.69999C1171.71 7.4 1172.66 7.95 1173.36 8.35C1174.16 8.65 1174.91 8.79999 1175.61 8.79999C1176.61 8.79999 1177.31 8.24999 1177.71 7.15C1178.21 6.04999 1178.61 4.39999 1178.91 2.2H1182.36C1182.26 4.1 1182.11 6.4 1181.91 9.1C1181.81 11.7 1181.71 15.15 1181.61 19.45C1181.61 23.75 1181.61 29.4 1181.61 36.4H1178.16C1177.76 31.2 1176.56 26.15 1174.56 21.25C1172.56 16.35 1169.71 12.35 1166.01 9.25C1162.41 6.05 1157.96 4.45 1152.66 4.45C1147.86 4.45 1143.91 5.8 1140.81 8.5C1137.71 11.2 1136.16 14.95 1136.16 19.75C1136.16 23.75 1137.16 27.2 1139.16 30.1C1141.16 32.9 1144.06 35.65 1147.86 38.35C1151.76 41.05 1156.46 44.3 1161.96 48.1C1166.76 51.2 1171.06 54.3 1174.86 57.4C1178.66 60.5 1181.71 64 1184.01 67.9C1186.31 71.8 1187.46 76.45 1187.46 81.85C1187.46 88.45 1185.71 93.9 1182.21 98.2C1178.81 102.5 1174.31 105.75 1168.71 107.95C1163.11 110.05 1156.96 111.1 1150.26 111.1C1144.06 111.1 1139.11 110.5 1135.41 109.3C1131.71 108.1 1128.61 106.85 1126.11 105.55C1123.91 104.15 1122.21 103.45 1121.01 103.45C1120.01 103.45 1119.26 104 1118.76 105.1C1118.36 106.2 1118.01 107.85 1117.71 110.05H1114.26C1114.46 107.65 1114.56 104.85 1114.56 101.65C1114.66 98.45 1114.71 94.3 1114.71 89.2C1114.81 84 1114.86 77.45 1114.86 69.55H1118.31C1118.71 76.15 1119.81 82.35 1121.61 88.15C1123.51 93.85 1126.36 98.45 1130.16 101.95C1134.06 105.45 1139.21 107.2 1145.61 107.2C1149.11 107.2 1152.21 106.6 1154.91 105.4C1157.71 104.1 1159.96 102.2 1161.66 99.7C1163.36 97.2 1164.21 94.1 1164.21 90.4C1164.21 86.2 1163.21 82.55 1161.21 79.45C1159.31 76.35 1156.66 73.45 1153.26 70.75C1149.96 68.05 1146.11 65.3 1141.71 62.5C1137.01 59.4 1132.61 56.3 1128.51 53.2C1124.41 50.1 1121.11 46.55 1118.61 42.55C1116.21 38.55 1115.01 33.8 1115.01 28.3C1115.01 22 1116.56 16.85 1119.66 12.85C1122.86 8.74999 1127.01 5.74999 1132.11 3.84999C1137.31 1.85 1142.81 0.849998 1148.61 0.849998Z" fill="white" fill-opacity="0.02"/>
</svg>
