<svg width="1181" height="112" viewBox="0 0 1181 112" fill="none" xmlns="http://www.w3.org/2000/svg">
<path d="M35.0473 0.849998C40.9473 0.849998 45.4973 1.5 48.6973 2.8C51.8973 4 54.6473 5.29999 56.9473 6.69999C58.1473 7.4 59.0973 7.95 59.7973 8.35C60.5973 8.65 61.3473 8.79999 62.0473 8.79999C63.0473 8.79999 63.7473 8.24999 64.1473 7.15C64.6473 6.04999 65.0473 4.39999 65.3473 2.2H68.7973C68.6973 4.1 68.5473 6.4 68.3473 9.1C68.2473 11.7 68.1473 15.15 68.0473 19.45C68.0473 23.75 68.0473 29.4 68.0473 36.4H64.5973C64.1973 31.2 62.9973 26.15 60.9973 21.25C58.9973 16.35 56.1473 12.35 52.4473 9.25C48.8473 6.05 44.3973 4.45 39.0973 4.45C34.2973 4.45 30.3473 5.8 27.2473 8.5C24.1473 11.2 22.5973 14.95 22.5973 19.75C22.5973 23.75 23.5973 27.2 25.5973 30.1C27.5973 32.9 30.4973 35.65 34.2973 38.35C38.1973 41.05 42.8973 44.3 48.3973 48.1C53.1973 51.2 57.4973 54.3 61.2973 57.4C65.0973 60.5 68.1473 64 70.4473 67.9C72.7473 71.8 73.8973 76.45 73.8973 81.85C73.8973 88.45 72.1473 93.9 68.6473 98.2C65.2473 102.5 60.7473 105.75 55.1473 107.95C49.5473 110.05 43.3973 111.1 36.6973 111.1C30.4973 111.1 25.5473 110.5 21.8473 109.3C18.1473 108.1 15.0473 106.85 12.5473 105.55C10.3473 104.15 8.64727 103.45 7.44727 103.45C6.44727 103.45 5.69727 104 5.19727 105.1C4.79727 106.2 4.44727 107.85 4.14727 110.05H0.697266C0.897266 107.65 0.997266 104.85 0.997266 101.65C1.09727 98.45 1.14727 94.3 1.14727 89.2C1.24727 84 1.29727 77.45 1.29727 69.55H4.74727C5.14727 76.15 6.24727 82.35 8.04727 88.15C9.94727 93.85 12.7973 98.45 16.5973 101.95C20.4973 105.45 25.6473 107.2 32.0473 107.2C35.5473 107.2 38.6473 106.6 41.3473 105.4C44.1473 104.1 46.3973 102.2 48.0973 99.7C49.7973 97.2 50.6473 94.1 50.6473 90.4C50.6473 86.2 49.6473 82.55 47.6473 79.45C45.7473 76.35 43.0973 73.45 39.6973 70.75C36.3973 68.05 32.5473 65.3 28.1473 62.5C23.4473 59.4 19.0473 56.3 14.9473 53.2C10.8473 50.1 7.54727 46.55 5.04727 42.55C2.64727 38.55 1.44727 33.8 1.44727 28.3C1.44727 22 2.99727 16.85 6.09727 12.85C9.29727 8.74999 13.4473 5.74999 18.5473 3.84999C23.7473 1.85 29.2473 0.849998 35.0473 0.849998ZM232.145 2.8C231.745 7.2 231.445 11.45 231.245 15.55C231.145 19.65 231.095 22.8 231.095 25C231.095 27 231.145 28.9 231.245 30.7C231.345 32.5 231.445 34 231.545 35.2H228.095C227.095 27.9 225.545 22.15 223.445 17.95C221.345 13.65 218.595 10.65 215.195 8.94999C211.895 7.14999 207.995 6.24999 203.495 6.24999H197.345C194.445 6.24999 192.245 6.49999 190.745 7C189.245 7.5 188.245 8.5 187.745 10C187.245 11.5 186.995 13.8 186.995 16.9V94.9C186.995 98 187.245 100.3 187.745 101.8C188.245 103.3 189.245 104.3 190.745 104.8C192.245 105.3 194.445 105.55 197.345 105.55H204.695C209.195 105.55 213.145 104.6 216.545 102.7C220.045 100.7 222.995 97.35 225.395 92.65C227.895 87.95 229.795 81.6 231.095 73.6H234.545C234.245 76.8 234.095 81 234.095 86.2C234.095 88.5 234.145 91.75 234.245 95.95C234.345 100.15 234.645 104.5 235.145 109C230.045 108.8 224.295 108.7 217.895 108.7C211.495 108.6 205.795 108.55 200.795 108.55C198.295 108.55 195.095 108.55 191.195 108.55C187.295 108.55 183.095 108.6 178.595 108.7C174.095 108.7 169.545 108.75 164.945 108.85C160.345 108.85 155.995 108.9 151.895 109V106C155.095 105.8 157.495 105.4 159.095 104.8C160.695 104.2 161.745 103 162.245 101.2C162.845 99.4 163.145 96.7 163.145 93.1V18.7C163.145 15 162.845 12.3 162.245 10.6C161.745 8.8 160.645 7.6 158.945 7C157.345 6.3 154.995 5.9 151.895 5.8V2.8C155.995 2.9 160.345 3 164.945 3.1C169.545 3.1 174.095 3.14999 178.595 3.24999C183.095 3.24999 187.295 3.24999 191.195 3.24999C195.095 3.24999 198.295 3.24999 200.795 3.24999C205.395 3.24999 210.595 3.24999 216.395 3.24999C222.295 3.14999 227.545 3 232.145 2.8ZM208.745 54.1C208.745 54.1 208.745 54.6 208.745 55.6C208.745 56.6 208.745 57.1 208.745 57.1H182.495C182.495 57.1 182.495 56.6 182.495 55.6C182.495 54.6 182.495 54.1 182.495 54.1H208.745ZM213.095 34.3C212.695 40 212.495 44.35 212.495 47.35C212.595 50.35 212.645 53.1 212.645 55.6C212.645 58.1 212.695 60.85 212.795 63.85C212.895 66.85 213.145 71.2 213.545 76.9H210.095C209.595 73.4 208.645 70.15 207.245 67.15C205.945 64.15 204.045 61.75 201.545 59.95C199.045 58.05 195.795 57.1 191.795 57.1V54.1C194.795 54.1 197.345 53.5 199.445 52.3C201.545 51 203.245 49.35 204.545 47.35C205.945 45.25 207.045 43.05 207.845 40.75C208.645 38.45 209.245 36.3 209.645 34.3H213.095ZM313.713 2.8C316.213 2.9 319.563 3 323.763 3.1C328.063 3.19999 332.313 3.24999 336.513 3.24999C341.313 3.24999 345.963 3.19999 350.463 3.1C354.963 3 358.163 2.95 360.063 2.95C369.363 2.95 377.063 4 383.163 6.09999C389.363 8.1 393.963 11.05 396.963 14.95C400.063 18.85 401.613 23.55 401.613 29.05C401.613 32.45 400.913 35.9 399.513 39.4C398.113 42.8 395.713 46 392.313 49C389.013 51.9 384.463 54.25 378.663 56.05C372.863 57.75 365.563 58.6 356.763 58.6H342.363V55.6H355.263C361.163 55.6 365.613 54.5 368.613 52.3C371.713 50 373.813 47 374.913 43.3C376.113 39.5 376.713 35.3 376.713 30.7C376.713 22.8 375.313 16.7 372.513 12.4C369.713 7.99999 364.913 5.8 358.113 5.8C354.213 5.8 351.663 6.65 350.463 8.35C349.363 10.05 348.813 13.5 348.813 18.7V93.1C348.813 96.7 349.063 99.4 349.563 101.2C350.163 103 351.263 104.2 352.863 104.8C354.463 105.4 356.863 105.8 360.063 106V109C357.363 108.8 353.963 108.7 349.863 108.7C345.763 108.6 341.613 108.55 337.413 108.55C332.613 108.55 328.063 108.6 323.763 108.7C319.563 108.7 316.213 108.8 313.713 109V106C316.913 105.8 319.313 105.4 320.913 104.8C322.513 104.2 323.563 103 324.063 101.2C324.663 99.4 324.963 96.7 324.963 93.1V18.7C324.963 15 324.663 12.3 324.063 10.6C323.563 8.8 322.463 7.6 320.763 7C319.163 6.3 316.813 5.9 313.713 5.8V2.8ZM342.063 56.05C346.363 56.15 350.063 56.35 353.163 56.65C356.363 56.95 359.163 57.25 361.563 57.55C363.963 57.75 366.113 57.9 368.013 58C377.113 58.8 383.813 60.75 388.113 63.85C392.513 66.95 395.363 71.6 396.663 77.8L400.113 93.25C401.013 97.25 401.963 100.05 402.963 101.65C403.963 103.25 405.413 104.05 407.313 104.05C408.613 103.95 409.663 103.65 410.463 103.15C411.363 102.55 412.313 101.7 413.313 100.6L415.413 102.4C412.713 105.5 409.813 107.7 406.713 109C403.613 110.4 399.863 111.1 395.463 111.1C390.063 111.1 385.613 109.95 382.113 107.65C378.613 105.35 376.313 101.1 375.213 94.9L372.513 79.9C371.813 75.7 370.963 72.05 369.963 68.95C368.963 65.75 367.563 63.25 365.763 61.45C364.063 59.55 361.663 58.6 358.563 58.6H342.363L342.063 56.05ZM577.405 2.8V5.8C575.205 6.6 572.855 8.35 570.355 11.05C567.955 13.75 565.705 17.95 563.605 23.65L531.955 109.3C531.155 109.2 530.305 109.15 529.405 109.15C528.505 109.15 527.605 109.15 526.705 109.15C525.905 109.15 525.055 109.15 524.155 109.15C523.255 109.15 522.405 109.2 521.605 109.3L483.355 15.4C481.955 11.8 480.405 9.35 478.705 8.04999C477.005 6.64999 475.405 5.9 473.905 5.8V2.8C476.905 2.9 480.405 3 484.405 3.1C488.505 3.19999 492.605 3.24999 496.705 3.24999C501.305 3.24999 505.605 3.19999 509.605 3.1C513.705 3 517.005 2.9 519.505 2.8V5.8C516.305 5.9 513.805 6.3 512.005 7C510.205 7.6 509.205 8.8 509.005 10.6C508.805 12.3 509.405 14.9 510.805 18.4L538.105 87.85L534.955 91.6L555.655 35.8C558.355 28.3 559.755 22.4 559.855 18.1C559.955 13.8 558.905 10.7 556.705 8.79999C554.505 6.89999 551.355 5.9 547.255 5.8V2.8C550.655 2.9 553.855 3 556.855 3.1C559.855 3.19999 562.905 3.24999 566.005 3.24999C568.205 3.24999 570.255 3.19999 572.155 3.1C574.155 3 575.905 2.9 577.405 2.8ZM694.1 2.8V5.8C690.9 5.9 688.45 6.3 686.75 7C685.15 7.6 684.1 8.8 683.6 10.6C683.1 12.3 682.85 15 682.85 18.7V93.1C682.85 96.7 683.1 99.4 683.6 101.2C684.2 103 685.3 104.2 686.9 104.8C688.5 105.4 690.9 105.8 694.1 106V109C691.4 108.8 688 108.7 683.9 108.7C679.8 108.6 675.65 108.55 671.45 108.55C666.55 108.55 662 108.6 657.8 108.7C653.7 108.7 650.35 108.8 647.75 109V106C650.95 105.8 653.35 105.4 654.95 104.8C656.55 104.2 657.6 103 658.1 101.2C658.7 99.4 659 96.7 659 93.1V18.7C659 15 658.7 12.3 658.1 10.6C657.6 8.8 656.5 7.6 654.8 7C653.2 6.3 650.85 5.9 647.75 5.8V2.8C650.35 2.9 653.7 3 657.8 3.1C662 3.19999 666.55 3.24999 671.45 3.24999C675.65 3.24999 679.8 3.19999 683.9 3.1C688 3 691.4 2.9 694.1 2.8ZM824.175 0.699991C830.775 0.699991 836.175 1.69999 840.375 3.7C844.675 5.6 848.475 7.85 851.775 10.45C853.775 11.95 855.275 12.15 856.275 11.05C857.375 9.85 858.125 7.1 858.525 2.8H861.975C861.775 6.7 861.625 11.45 861.525 17.05C861.425 22.55 861.375 29.9 861.375 39.1H857.925C857.425 34.5 856.775 30.6 855.975 27.4C855.175 24.1 854.075 21.2 852.675 18.7C851.275 16.2 849.275 13.95 846.675 11.95C844.175 9.44999 841.275 7.59999 837.975 6.4C834.675 5.2 831.225 4.59999 827.625 4.59999C822.225 4.59999 817.625 6.04999 813.825 8.94999C810.025 11.75 806.925 15.6 804.525 20.5C802.225 25.4 800.525 30.95 799.425 37.15C798.325 43.25 797.775 49.6 797.775 56.2C797.775 62.9 798.325 69.35 799.425 75.55C800.625 81.65 802.425 87.1 804.825 91.9C807.325 96.7 810.525 100.5 814.425 103.3C818.325 106.1 822.925 107.5 828.225 107.5C831.525 107.5 834.825 106.9 838.125 105.7C841.525 104.4 844.425 102.55 846.825 100.15C850.725 97.15 853.375 93.45 854.775 89.05C856.175 84.55 857.225 78.6 857.925 71.2H861.375C861.375 80.7 861.425 88.4 861.525 94.3C861.625 100.1 861.775 105 861.975 109H858.525C858.125 104.7 857.425 102 856.425 100.9C855.525 99.8 853.975 99.95 851.775 101.35C848.075 103.95 844.125 106.25 839.925 108.25C835.825 110.15 830.525 111.1 824.025 111.1C813.425 111.1 804.125 108.95 796.125 104.65C788.225 100.35 782.075 94.15 777.675 86.05C773.275 77.95 771.075 68.2 771.075 56.8C771.075 45.6 773.325 35.8 777.825 27.4C782.425 19 788.675 12.45 796.575 7.75C804.575 3.04999 813.775 0.699991 824.175 0.699991ZM1022.49 2.8C1022.09 7.2 1021.79 11.45 1021.59 15.55C1021.49 19.65 1021.44 22.8 1021.44 25C1021.44 27 1021.49 28.9 1021.59 30.7C1021.69 32.5 1021.79 34 1021.89 35.2H1018.44C1017.44 27.9 1015.89 22.15 1013.79 17.95C1011.69 13.65 1008.94 10.65 1005.54 8.94999C1002.24 7.14999 998.337 6.24999 993.837 6.24999H987.687C984.787 6.24999 982.587 6.49999 981.087 7C979.587 7.5 978.587 8.5 978.087 10C977.587 11.5 977.337 13.8 977.337 16.9V94.9C977.337 98 977.587 100.3 978.087 101.8C978.587 103.3 979.587 104.3 981.087 104.8C982.587 105.3 984.787 105.55 987.687 105.55H995.037C999.537 105.55 1003.49 104.6 1006.89 102.7C1010.39 100.7 1013.34 97.35 1015.74 92.65C1018.24 87.95 1020.14 81.6 1021.44 73.6H1024.89C1024.59 76.8 1024.44 81 1024.44 86.2C1024.44 88.5 1024.49 91.75 1024.59 95.95C1024.69 100.15 1024.99 104.5 1025.49 109C1020.39 108.8 1014.64 108.7 1008.24 108.7C1001.84 108.6 996.137 108.55 991.137 108.55C988.637 108.55 985.437 108.55 981.537 108.55C977.637 108.55 973.437 108.6 968.937 108.7C964.437 108.7 959.887 108.75 955.287 108.85C950.687 108.85 946.337 108.9 942.237 109V106C945.437 105.8 947.837 105.4 949.437 104.8C951.037 104.2 952.087 103 952.587 101.2C953.187 99.4 953.487 96.7 953.487 93.1V18.7C953.487 15 953.187 12.3 952.587 10.6C952.087 8.8 950.987 7.6 949.287 7C947.687 6.3 945.337 5.9 942.237 5.8V2.8C946.337 2.9 950.687 3 955.287 3.1C959.887 3.1 964.437 3.14999 968.937 3.24999C973.437 3.24999 977.637 3.24999 981.537 3.24999C985.437 3.24999 988.637 3.24999 991.137 3.24999C995.737 3.24999 1000.94 3.24999 1006.74 3.24999C1012.64 3.14999 1017.89 3 1022.49 2.8ZM999.087 54.1C999.087 54.1 999.087 54.6 999.087 55.6C999.087 56.6 999.087 57.1 999.087 57.1H972.837C972.837 57.1 972.837 56.6 972.837 55.6C972.837 54.6 972.837 54.1 972.837 54.1H999.087ZM1003.44 34.3C1003.04 40 1002.84 44.35 1002.84 47.35C1002.94 50.35 1002.99 53.1 1002.99 55.6C1002.99 58.1 1003.04 60.85 1003.14 63.85C1003.24 66.85 1003.49 71.2 1003.89 76.9H1000.44C999.937 73.4 998.987 70.15 997.587 67.15C996.287 64.15 994.387 61.75 991.887 59.95C989.387 58.05 986.137 57.1 982.137 57.1V54.1C985.137 54.1 987.687 53.5 989.787 52.3C991.887 51 993.587 49.35 994.887 47.35C996.287 45.25 997.387 43.05 998.187 40.75C998.987 38.45 999.587 36.3 999.987 34.3H1003.44ZM1141.56 0.849998C1147.46 0.849998 1152.01 1.5 1155.21 2.8C1158.41 4 1161.16 5.29999 1163.46 6.69999C1164.66 7.4 1165.61 7.95 1166.31 8.35C1167.11 8.65 1167.86 8.79999 1168.56 8.79999C1169.56 8.79999 1170.26 8.24999 1170.66 7.15C1171.16 6.04999 1171.56 4.39999 1171.86 2.2H1175.31C1175.21 4.1 1175.06 6.4 1174.86 9.1C1174.76 11.7 1174.66 15.15 1174.56 19.45C1174.56 23.75 1174.56 29.4 1174.56 36.4H1171.11C1170.71 31.2 1169.51 26.15 1167.51 21.25C1165.51 16.35 1162.66 12.35 1158.96 9.25C1155.36 6.05 1150.91 4.45 1145.61 4.45C1140.81 4.45 1136.86 5.8 1133.76 8.5C1130.66 11.2 1129.11 14.95 1129.11 19.75C1129.11 23.75 1130.11 27.2 1132.11 30.1C1134.11 32.9 1137.01 35.65 1140.81 38.35C1144.71 41.05 1149.41 44.3 1154.91 48.1C1159.71 51.2 1164.01 54.3 1167.81 57.4C1171.61 60.5 1174.66 64 1176.96 67.9C1179.26 71.8 1180.41 76.45 1180.41 81.85C1180.41 88.45 1178.66 93.9 1175.16 98.2C1171.76 102.5 1167.26 105.75 1161.66 107.95C1156.06 110.05 1149.91 111.1 1143.21 111.1C1137.01 111.1 1132.06 110.5 1128.36 109.3C1124.66 108.1 1121.56 106.85 1119.06 105.55C1116.86 104.15 1115.16 103.45 1113.96 103.45C1112.96 103.45 1112.21 104 1111.71 105.1C1111.31 106.2 1110.96 107.85 1110.66 110.05H1107.21C1107.41 107.65 1107.51 104.85 1107.51 101.65C1107.61 98.45 1107.66 94.3 1107.66 89.2C1107.76 84 1107.81 77.45 1107.81 69.55H1111.26C1111.66 76.15 1112.76 82.35 1114.56 88.15C1116.46 93.85 1119.31 98.45 1123.11 101.95C1127.01 105.45 1132.16 107.2 1138.56 107.2C1142.06 107.2 1145.16 106.6 1147.86 105.4C1150.66 104.1 1152.91 102.2 1154.61 99.7C1156.31 97.2 1157.16 94.1 1157.16 90.4C1157.16 86.2 1156.16 82.55 1154.16 79.45C1152.26 76.35 1149.61 73.45 1146.21 70.75C1142.91 68.05 1139.06 65.3 1134.66 62.5C1129.96 59.4 1125.56 56.3 1121.46 53.2C1117.36 50.1 1114.06 46.55 1111.56 42.55C1109.16 38.55 1107.96 33.8 1107.96 28.3C1107.96 22 1109.51 16.85 1112.61 12.85C1115.81 8.74999 1119.96 5.74999 1125.06 3.84999C1130.26 1.85 1135.76 0.849998 1141.56 0.849998Z" fill="white" fill-opacity="0.02"/>
</svg>
