<svg width="66" height="66" viewBox="0 0 66 66" fill="none" xmlns="http://www.w3.org/2000/svg">
<g clip-path="url(#clip0_241_1375)">
<g clip-path="url(#clip1_241_1375)">
<path d="M72.2856 -23.9341L24.1758 24.1758" stroke="white" stroke-width="0.725275"/>
<path d="M65.7583 -30.4614L17.6484 17.6485" stroke="white" stroke-width="0.725275"/>
<path d="M59.2305 -36.9893L11.1206 11.1206" stroke="white" stroke-width="0.725275"/>
<path d="M52.9448 -43.2749L4.83494 4.83498" stroke="white" stroke-width="0.725275"/>
<path d="M78.8135 -17.4067L30.7036 30.7031" stroke="white" stroke-width="0.725275"/>
<path d="M85.5825 -10.6372L37.4726 37.4727" stroke="white" stroke-width="0.725275"/>
<path d="M91.1431 -5.07666L43.0332 43.0332" stroke="white" stroke-width="0.725275"/>
<path d="M0.121094 0.121094L48.231 48.231" stroke="white" stroke-width="0.725275"/>
<path d="M-13.5386 0.121094L34.5713 48.231" stroke="white" stroke-width="0.725275"/>
<path d="M-27.1978 0.121094L20.9121 48.231" stroke="white" stroke-width="0.725275"/>
<path d="M-40.8569 0.121094L7.25295 48.231" stroke="white" stroke-width="0.725275"/>
<path d="M0.250488 47.5405L-47.8594 95.6504" stroke="white" stroke-width="0.725275"/>
<path d="M48 48L96.1099 96.1099" stroke="white" stroke-width="0.725275"/>
</g>
<rect x="0.362637" y="0.362637" width="47.6264" height="47.6264" stroke="white" stroke-width="0.725275"/>
<path d="M7.28791 54.4395C7.2261 53.9175 6.97541 53.5123 6.53585 53.2238C6.09629 52.9354 5.55714 52.7911 4.91841 52.7911C4.45138 52.7911 4.04272 52.8667 3.69245 53.0178C3.34561 53.1689 3.07432 53.3766 2.87857 53.6411C2.68627 53.9055 2.59011 54.206 2.59011 54.5425C2.59011 54.8241 2.65708 55.0662 2.791 55.2688C2.92837 55.468 3.1035 55.6345 3.31642 55.7685C3.52933 55.899 3.75254 56.0071 3.98606 56.093C4.21958 56.1754 4.43421 56.2424 4.62995 56.2939L5.70138 56.5823C5.9761 56.6544 6.28173 56.754 6.61827 56.8811C6.95824 57.0082 7.28276 57.1816 7.59183 57.4014C7.90433 57.6177 8.16188 57.8959 8.36449 58.2358C8.5671 58.5758 8.66841 58.993 8.66841 59.4876C8.66841 60.0576 8.51903 60.5727 8.22026 61.0329C7.92493 61.493 7.49224 61.8588 6.92219 62.1301C6.35557 62.4014 5.66703 62.537 4.8566 62.537C4.1011 62.537 3.44691 62.4151 2.89403 62.1713C2.34458 61.9275 1.91188 61.5875 1.59595 61.1514C1.28345 60.7152 1.1066 60.2087 1.06539 59.6318H2.38407C2.41841 60.0301 2.55234 60.3598 2.78585 60.6208C3.0228 60.8783 3.32157 61.0707 3.68214 61.1977C4.04616 61.3213 4.43764 61.3832 4.8566 61.3832C5.34423 61.3832 5.78208 61.3042 6.17013 61.1462C6.55817 60.9848 6.86552 60.7616 7.09217 60.4766C7.31882 60.1881 7.43214 59.8516 7.43214 59.4669C7.43214 59.1167 7.33427 58.8316 7.13853 58.6119C6.94279 58.3921 6.68524 58.2135 6.36587 58.0762C6.0465 57.9388 5.70138 57.8186 5.3305 57.7156L4.03242 57.3447C3.20824 57.1077 2.55577 56.7695 2.075 56.3299C1.59423 55.8904 1.35385 55.3152 1.35385 54.6043C1.35385 54.0137 1.51353 53.4985 1.8329 53.059C2.1557 52.616 2.58839 52.2726 3.13098 52.0288C3.67699 51.7815 4.28654 51.6579 4.95962 51.6579C5.63956 51.6579 6.24396 51.7798 6.7728 52.0236C7.30165 52.264 7.72061 52.5937 8.02967 53.0126C8.34217 53.4316 8.50701 53.9072 8.52418 54.4395H7.28791ZM10.8446 52.9354V51.8021H18.7567V52.9354H15.4394V62.3516H14.1619V52.9354H10.8446ZM21.381 62.3516V51.8021H27.7478V52.9354H22.6585V56.4999H27.4181V57.6332H22.6585V61.2183H27.8302V62.3516H21.381ZM30.7031 62.3516V51.8021H31.9805V61.2183H36.8844V62.3516H30.7031ZM38.9562 51.8021L42.0881 60.6826H42.2117L45.3436 51.8021H46.6829L42.8093 62.3516H41.4906L37.617 51.8021H38.9562ZM50.2563 51.8021V62.3516H48.9788V51.8021H50.2563ZM61.8358 51.8021V62.3516H60.5996L54.8509 54.0686H54.7479V62.3516H53.4704V51.8021H54.7067L60.4759 60.1057H60.579V51.8021H61.8358Z" fill="white"/>
<path d="M52.9354 46.9259H51.8021V39.0138H52.9354V42.3311H62.3516V43.6086H52.9354V46.9259ZM51.8021 35.7648H62.3516V37.0422H51.8021V35.7648ZM62.3516 33.2034H51.8021V31.9259H61.2183V27.0221H62.3516V33.2034ZM51.8021 23.7666H62.3516V25.044H51.8021V23.7666ZM51.8021 12.8398H62.3516V14.0761L54.0686 19.8247V19.9277H62.3516V21.2052H51.8021V19.9689L60.1057 14.1997V14.0967H51.8021V12.8398ZM55.0988 3.07204C54.752 3.18536 54.4412 3.33475 54.1665 3.52019C53.8883 3.70219 53.6514 3.92025 53.4556 4.17437C53.2599 4.42506 53.1105 4.71009 53.0075 5.02946C52.9044 5.34883 52.8529 5.6991 52.8529 6.08028C52.8529 6.70528 53.0143 7.27362 53.3371 7.7853C53.6599 8.29697 54.1356 8.70391 54.764 9.00611C55.3924 9.3083 56.1634 9.4594 57.0768 9.4594C57.9903 9.4594 58.7612 9.30659 59.3897 9.00095C60.0181 8.69532 60.4937 8.28152 60.8165 7.75954C61.1393 7.23756 61.3007 6.65034 61.3007 5.99786C61.3007 5.39347 61.172 4.86119 60.9144 4.40102C60.6534 3.93742 60.286 3.57685 59.8121 3.31929C59.3347 3.0583 58.7733 2.92781 58.1277 2.92781L58.2101 2.53633V5.7094H57.0768V1.69155H58.2101C59.0789 1.69155 59.8344 1.87698 60.4766 2.24786C61.1187 2.61531 61.6167 3.12355 61.9704 3.77259C62.3207 4.41819 62.4958 5.15995 62.4958 5.99786C62.4958 6.93193 62.276 7.75267 61.8365 8.46009C61.3969 9.16407 60.7719 9.71352 59.9615 10.1084C59.151 10.4999 58.1895 10.6957 57.0768 10.6957C56.2424 10.6957 55.492 10.5841 54.8258 10.3608C54.1562 10.1342 53.5861 9.81483 53.1156 9.40274C52.6452 8.99065 52.2846 8.50301 52.0339 7.93983C51.7832 7.37664 51.6579 6.75679 51.6579 6.08028C51.6579 5.52396 51.742 5.00542 51.9103 4.52465C52.0751 4.04045 52.3104 3.60947 52.616 3.23172C52.9182 2.85054 53.2805 2.53289 53.7029 2.27877C54.1218 2.02465 54.5871 1.84951 55.0988 1.75336V3.07204Z" fill="white"/>
</g>
<defs>
<clipPath id="clip0_241_1375">
<rect width="65.9999" height="66" fill="white"/>
</clipPath>
<clipPath id="clip1_241_1375">
<rect width="48.3516" height="48.3516" fill="white"/>
</clipPath>
</defs>
</svg>
